<svg height="512" viewBox="0 0 60 60" width="512" xmlns="http://www.w3.org/2000/svg" xmlns:xlink="http://www.w3.org/1999/xlink"><linearGradient id="linearGradient-1" x1="5.574%" x2="94.426%" y1="-5.322%" y2="107.049%"><stop offset="0" stop-color="#d3dff2"/><stop offset=".1717" stop-color="#d3dff2"/><stop offset=".2" stop-color="#d3dff2"/><stop offset=".2002" stop-color="#dae2f2"/><stop offset=".2007" stop-color="#ebeaf2"/><stop offset=".2014" stop-color="#f6eff2"/><stop offset=".2023" stop-color="#fdf2f2"/><stop offset=".205" stop-color="#fff3f2"/><stop offset=".2522" stop-color="#fff3f2"/><stop offset=".26" stop-color="#fff3f2"/><stop offset=".26" stop-color="#d3dff2"/><stop offset=".3974" stop-color="#d3dff2"/><stop offset=".42" stop-color="#d3dff2"/><stop offset=".4202" stop-color="#dae2f2"/><stop offset=".4207" stop-color="#ebeaf2"/><stop offset=".4214" stop-color="#f6eff2"/><stop offset=".4223" stop-color="#fdf2f2"/><stop offset=".425" stop-color="#fff3f2"/><stop offset=".4894" stop-color="#fff3f2"/><stop offset=".5" stop-color="#fff3f2"/><stop offset=".5" stop-color="#f8f0f2"/><stop offset=".5001" stop-color="#e7e8f2"/><stop offset=".5003" stop-color="#dce3f2"/><stop offset=".5005" stop-color="#d5e0f2"/><stop offset=".501" stop-color="#d3dff2"/><stop offset=".7062" stop-color="#d3dff2"/><stop offset=".74" stop-color="#d3dff2"/><stop offset=".741" stop-color="#fff3f2"/><stop offset=".8346" stop-color="#fff3f2"/><stop offset=".85" stop-color="#fff3f2"/><stop offset=".851" stop-color="#d3dff2"/></linearGradient><g id="Page-1" fill="none" fill-rule="evenodd"><g id="001---Global-Connection" fill-rule="nonzero"><g id="Icons_copy" transform="translate(1 1)"><path id="Shape" d="m56 13v40h-54v-40c.0032402-1.1032246.89677542-1.9967598 2-2h50c1.1032246.0032402 1.9967598.8967754 2 2z" fill="#cad9fc"/><path id="Shape" d="m53 13v40h-51v-40c.0032402-1.1032246.89677542-1.9967598 2-2h47c1.1032246.0032402 1.9967598.8967754 2 2z" fill="#e8edfc"/><path id="Shape" d="m51.56 15.17c-.1648602-.1126622-.3603312-.1720016-.56-.17h-44c-.55162365.0015928-.99840721.4483764-1 1v33h46v-33c-.0033714-.3316542-.167399-.6410699-.44-.83zm-42.56 20.35c.06-.14.13-.27.2-.41s.15-.28.23-.42c-.15.27-.29.55-.43.83z" fill="#cad9fc"/><path id="Shape" d="m48.56 15.17c-.1648602-.1126622-.3603312-.1720016-.56-.17h-41c-.55162365.0015928-.99840721.4483764-1 1v19.52c.06-.14.13-.27.2-.41s.15-.28.23-.42c-.15.27-.29.55-.43.83v13.48h43v-33c-.0033714-.3316542-.167399-.6410699-.44-.83z" fill="url(#linearGradient-1)"/><path id="Shape" d="m58 50v4c.0002919 1.0609554-.4210417 2.0785407-1.1712505 2.8287495s-1.7677941 1.1715424-2.8287495 1.1712505h-50c-1.06095541.0002919-2.07854066-.4210417-2.82874946-1.1712505-.75020879-.7502088-1.17154242-1.7677941-1.17125054-2.8287495v-4c.00159279-.5516236.44837635-.9984072 1-1h56c.5516236.0015928.9984072.4483764 1 1z" fill="#cad9fc"/><path id="Shape" d="m55 50v4c.0002919 1.0609554-.4210417 2.0785407-1.1712505 2.8287495s-1.7677941 1.1715424-2.8287495 1.1712505h-47c-1.06095541.0002919-2.07854066-.4210417-2.82874946-1.1712505-.75020879-.7502088-1.17154242-1.7677941-1.17125054-2.8287495v-4c.00159279-.5516236.44837635-.9984072 1-1h53c.5516236.0015928.9984072.4483764 1 1z" fill="#e8edfc"/><path id="Shape" d="m35.7639 53h-13.5278c-.7575666.0000121-1.4501162-.4280067-1.7889-1.1056l-1.4472-2.8944h20l-1.4472 2.8944c-.3387838.6775933-1.0313334 1.1056121-1.7889 1.1056z" fill="#cad9fc"/><circle id="Oval" cx="29" cy="17" fill="#285680" r="17"/><path id="Shape" d="m25.4 33.62c-5.4181341-1.1750203-9.9232112-4.9176934-12.0715155-10.0286267s-1.670044-10.9482776 1.2815155-15.6413733c1.3879666.7247602 2.916198 1.14093038 4.48 1.22 1.66.08 3.79-.52 5.06.91 1.0786862 1.4946039.8355189 3.5658689-.56 4.77-.58.49-1.3.77-1.92 1.21-3.09 2.17-2.79 7.84 1.12 8.91.9251784.0944012 1.7848594.5206893 2.42 1.2 1.46 1.92 1.06 5.01.19 7.45z" fill="#fff"/><path id="Shape" d="m46 17c.0056068 5.0522871-2.2417587 9.8439783-6.13 13.07-.54-.4-1.1-.82-1.62-1.28-.5949274-.4965491-1.1078861-1.0837518-1.52-1.74-.6598554-1.0132868-.7687174-2.2895997-.29-3.4.54-1.08 1.65-1.78 2.26-2.83 1.8332462-3.2043948 2.084201-7.0757421.68-10.49-.96-2.08-3.47-2.93-5.55-3.39-1.1800533-.12226608-2.3497535-.32947011-3.5-.62-2.56-.97-2.56-3.72-2.09-6.16.01-.05.02-.09.03-.14.24-.01.49-.02.73-.02 4.5088023-.00039789 8.83305 1.79054062 12.0212547 4.97874531s4.9791432 7.51245239 4.9787453 12.02125469z" fill="#e8edfc"/><path id="Shape" d="m43 17c.0032991 4.3968502-1.6995344 8.6234621-4.75 11.79-.5949274-.4965491-1.1078861-1.0837518-1.52-1.74-.6598554-1.0132868-.7687174-2.2895997-.29-3.4.54-1.08 1.65-1.78 2.26-2.83 1.8332462-3.2043948 2.084201-7.0757421.68-10.49-.96-2.08-3.47-2.93-5.55-3.39-1.1800533-.12226608-2.3497535-.32947011-3.5-.62-2.56-.97-2.56-3.72-2.09-6.16 8.4494136 1.11288065 14.7642505 8.31761327 14.76 16.84z" fill="#fff"/><path id="Shape" d="m36.73 27.05c-.6598554-1.0132868-.7687174-2.2895997-.29-3.4.54-1.08 1.65-1.78 2.26-2.83 1.8332462-3.2043948 2.084201-7.0757421.68-10.49-.96-2.08-3.47-2.93-5.55-3.39-1.1800533-.12226608-2.3497535-.32947011-3.5-.62-2.61-.99-2.56-3.83-2.06-6.3-5.5816522.23166856-10.6910283 3.19779979-13.66 7.93 1.3879666.7247602 2.916198 1.14093038 4.48 1.22 1.66.08 3.79-.52 5.06.91 1.0786862 1.4946039.8355189 3.5658689-.56 4.77-.58.49-1.3.77-1.92 1.21-3.09 2.17-2.79 7.84 1.12 8.91.9251784.0944012 1.7848594.5206893 2.42 1.2 1.46 1.92 1.06 5.01.19 7.45 5.1125087 1.0977509 10.446043-.2107527 14.47-3.55-1.2282798-.7989759-2.2937934-1.8237692-3.14-3.02zm-2.3-9.51c-.3942118.7464304-1.0183626 1.346036-1.78 1.71-.6127745.325677-1.3186404.4315569-2 .3-1.116625-.3658108-1.8817474-1.395321-1.91-2.57-.1117328-1.1386892.2175495-2.2768607.92-3.18.84955-.9168118 2.1672771-1.2324351 3.34-.8.7970753.4068961 1.3974013 1.1167884 1.6662618 1.9703735s.1837394 1.7793781-.2362618 2.5696265z" fill="#e8edfc"/><path id="Shape" d="m34.43 17.54c-.3942118.7464304-1.0183626 1.346036-1.78 1.71-.6127745.325677-1.3186404.4315569-2 .3-1.116625-.3658108-1.8817474-1.395321-1.91-2.57-.1117328-1.1386892.2175495-2.2768607.92-3.18.84955-.9168118 2.1672771-1.2324351 3.34-.8.7970753.4068961 1.3974013 1.1167884 1.6662618 1.9703735s.1837394 1.7793781-.2362618 2.5696265z" fill="#fff"/><rect id="Rectangle-path" fill="#cad9fc" height="4" rx="1" width="8" x="25" y="41"/><rect id="Rectangle-path" fill="#e8edfc" height="4" rx="1" width="5" x="25" y="41"/><path id="Shape" d="m4 58 3 .0000002c-1.06095541.0002917-2.07854066-.4210419-2.82874946-1.1712507-.75020879-.7502088-1.17154242-1.7677941-1.17125054-2.8287495v-4c.00159279-.5516236.44837635-.9984072 1-1h1v-36c.0032402-1.1032246.89677542-1.9967598 2-2h-3c-1.10322458.0032402-1.9967598.8967754-2 2v36h-1c-.55162365.0015928-.99840721.4483764-1 1v4c-.00029188 1.0609554.42104175 2.0785407 1.17125054 2.8287495.7502088.7502088 1.76779405 1.1715424 2.82874946 1.1712505z" fill="#fff"/></g><g id="Layer_2"><path id="Shape" d="m2 50v-13-23h2v23 13z" fill="#fff"/><g fill="#428dff"><path id="Shape" d="m3 45c-.55162365.0015928-.99840721.4483764-1 1v4h2v-4c-.00159279-.5516236-.44837635-.9984072-1-1z"/><path id="Shape" d="m4 14h-2v24c0 .5522847.44771525 1 1 1s1-.4477153 1-1z"/><path id="Shape" d="m2 42c.0039589.2647108.10750224.5182135.29.71l.15.12c.05575598.037828.11628399.068092.18.09.05666008.0288933.11733597.0491186.18.06.06612874.0112482.13295338.0179306.2.02.26476698-.0036835.51836621-.1072663.71-.29.37745227-.398085.37745227-1.021915 0-1.42-.09566008-.0903288-.20765785-.1616001-.33-.21-.12022231-.051241-.24932274-.07842-.38-.08-.26469083.0040569-.51815919.1075862-.71.29-.18241381.1918408-.28594314.4453092-.29.71z"/><path id="Shape" d="m57 51h-54c-.55228475 0-1-.4477153-1-1s.44771525-1 1-1h53v-35c-.0007162-.5519878-.4480122-.9992838-1-1h-9.09c-.5522847 0-1-.4477153-1-1s.4477153-1 1-1h9.09c1.6561003.0018187 2.9981813 1.3438997 3 3v36c0 .5522847-.4477153 1-1 1z"/><path id="Shape" d="m3 15c-.55228475 0-1-.4477153-1-1 .00181871-1.6561003 1.34389967-2.9981813 3-3h9.09c.5522847 0 1 .4477153 1 1s-.4477153 1-1 1h-9.09c-.55198782.0007162-.99928381.4480122-1 1 0 .5522847-.44771525 1-1 1z"/><path id="Shape" d="m53 51h-46c-.55228475 0-1-.4477153-1-1v-33c.00110246-1.1041125.89588748-1.9988975 2-2h5.12c.5522847 0 1 .4477153 1 1s-.4477153 1-1 1h-5.12v32h44v-32h-5.12c-.5522847 0-1-.4477153-1-1s.4477153-1 1-1h5.12c1.1041125.0011025 1.9988975.8958875 2 2v33c0 .5522847-.4477153 1-1 1z"/><path id="Shape" d="m55 60h-50c-2.76007596-.0032511-4.99674886-2.239924-5-5v-4c.00110246-1.1041125.89588748-1.9988975 2-2h56c1.1041125.0011025 1.9988975.8958875 2 2v4c-.0032511 2.760076-2.239924 4.9967489-5 5zm-53-9v4c.00181871 1.6561003 1.34389967 2.9981813 3 3h50c1.6561003-.0018187 2.9981813-1.3438997 3-3v-4z"/><path id="Shape" d="m36.7642 55h-13.5284c-1.1372635.0036624-2.1777502-.6393755-2.6831-1.6582l-1.4472-2.8945c-.1550411-.3100073-.1384911-.6781924.0437383-.9730394.1822294-.2948469.5041463-.4743008.8507617-.4742606h20c.3466154-.0000402.6685323.1794137.8507617.4742606.1822294.294847.1987794.6630321.0437383.9730394l-1.4472 2.8945c-.5053498 1.0188245-1.5458365 1.6618624-2.6831 1.6582zm-15.146-4 .7236 1.4473c.1683522.3395206.5150338.5538504.894.5527h13.5284c.3789662.0011504.7256478-.2131794.894-.5527l.7236-1.4473z"/><path id="Shape" d="m13 55h-12c-.55228475 0-1-.4477153-1-1s.44771525-1 1-1h12c.5522847 0 1 .4477153 1 1s-.4477153 1-1 1z"/><path id="Shape" d="m18 55h-1c-.5522847 0-1-.4477153-1-1s.4477153-1 1-1h1c.5522847 0 1 .4477153 1 1s-.4477153 1-1 1z"/><path id="Shape" d="m59 55h-12c-.5522847 0-1-.4477153-1-1s.4477153-1 1-1h12c.5522847 0 1 .4477153 1 1s-.4477153 1-1 1z"/><path id="Shape" d="m43 55h-1c-.5522847 0-1-.4477153-1-1s.4477153-1 1-1h1c.5522847 0 1 .4477153 1 1s-.4477153 1-1 1z"/><path id="Shape" d="m30 36c-9.9411255 0-18-8.0588745-18-18s8.0588745-18 18-18 18 8.0588745 18 18c-.0110223 9.9365563-8.0634437 17.9889777-18 18zm0-34c-8.836556 0-16 7.163444-16 16s7.163444 16 16 16 16-7.163444 16-16c-.0100847-8.83237539-7.1676246-15.98991526-16-16z"/><path id="Shape" d="m53 45h-19c-.5522847 0-1-.4477153-1-1s.4477153-1 1-1h19c.5522847 0 1 .4477153 1 1s-.4477153 1-1 1z"/><path id="Shape" d="m26 45h-19c-.55228475 0-1-.4477153-1-1s.44771525-1 1-1h19c.5522847 0 1 .4477153 1 1s-.4477153 1-1 1z"/><path id="Shape" d="m33 47h-6c-1.1041125-.0011025-1.9988975-.8958875-2-2v-2c.0011025-1.1041125.8958875-1.9988975 2-2h6c1.1041125.0011025 1.9988975.8958875 2 2v2c-.0011025 1.1041125-.8958875 1.9988975-2 2zm-6-4v2h6.0015l-.0015-2z"/><path id="Shape" d="m30 43c-.5522847 0-1-.4477153-1-1v-7c0-.5522847.4477153-1 1-1s1 .4477153 1 1v7c0 .5522847-.4477153 1-1 1z"/><path id="Shape" d="m40.8691 32.07c-.2169762.0002518-.4280657-.0705562-.601-.2016l-.1387-.1045c-1.2821694-.8472165-2.3885497-1.934208-3.2583-3.2012-.843176-1.3046515-.9651289-2.9485102-.3237-4.3633.3560273-.645813.8094101-1.2329307 1.3442-1.7407.3572767-.3429536.6739544-.7258324.9438-1.1411 1.672811-2.9226652 1.9071293-6.4526725.6353-9.5708-.6152-1.3335-2.1592-2.2339-4.8564-2.83-.4261201-.08700176-.8568021-.14993475-1.29-.1885-.8008941-.05423504-1.5911909-.21346441-2.3506-.4736-2.581-.979-3.4844-3.48-2.6841-7.4326.0655387-.35538045.3177142-.64775418.6596189-.76476604s.720341-.04045574.9898811.2002489c.2695401.24070465.3882457.60810612.3105.96101714-.7788 3.8481.4458 4.7915 1.4346 5.1665.6019487.19568034 1.2261084.31491508 1.8578.3549.5066189.04625388 1.0101982.12127495 1.5083.2247 2.1089.4663 5.0547 1.3837 6.2378 3.9467 1.5284216 3.7107173 1.2623867 7.9186213-.7212 11.4073-.3467246.5554837-.7597607 1.0667082-1.23 1.5224-.3926272.3685886-.730215.7917184-1.0024 1.2564-.3267308.8024687-.2328261 1.7148999.2505 2.434.7438174 1.0416536 1.6756234 1.9352378 2.7475 2.6348l.14.1055c.3433209.2590106.4825887.7085223.3458422 1.1162674-.1367464.4077452-.5188776.6823941-.9489422.6820326z"/><path id="Shape" d="m32.1914 21.61c-.2553239.0006759-.50995-.0266881-.7593-.0816-1.5411334-.4539746-2.6205405-1.8409731-2.6821-3.4464-.149849-1.41745.2686134-2.8364677 1.1636-3.9458 1.1522435-1.2488095 2.9548003-1.6586062 4.5337-1.0307 1.0245425.5090817 1.8002357 1.4101449 2.1513 2.499.3679885 1.122118.2672749 2.3452857-.2793 3.3921-.4947638.9397866-1.2781219 1.6959439-2.2348 2.1572-.5884432.2931927-1.2356976.4491683-1.8931.4562zm.8232-6.8282c-.6020621.0126937-1.1762571.256118-1.604.68-.5242396.6918228-.7639564 1.5579874-.67 2.4209.0733.7344.45 1.5425 1.1265 1.6934.4593656.0771347.9313408-.000496 1.3418-.2207.5693942-.2715304 1.0366575-.7185694 1.3331-1.2754.2994643-.5721882.3554556-1.2409838.1553-1.855-.1868299-.5793991-.5995079-1.0589219-1.1446-1.33-.1682836-.0785462-.3524392-.1171501-.5381-.1128z"/><path id="Shape" d="m26.4 35.6206c-.325013-.0005394-.6295453-.1587945-.8167838-.424455-.1872385-.2656604-.2338872-.6056729-.1251162-.911945.9805-2.75.9644-5.1831-.0439-6.5088-.32-.4219-.71-.5366-1.4912-.7368l-.3965-.1035c-2.0462102-.5774651-3.5570745-2.3106422-3.85-4.4165-.4484911-2.3815346.4879138-4.8119514 2.4184-6.2769.2959628-.20291.6025675-.3898438.9185-.56.3280299-.1695029.6397181-.3689151.9311-.5957.5251954-.4800473.8428039-1.1457517.8855-1.856.0636633-.5328355-.0905663-1.0687985-.4277-1.4863-.5928-.668-1.5123-.6719-2.9585-.6-.4615.0225-.9405.0455-1.4019.0249-1.7072484-.0868877-3.3757374-.5405814-4.8919-1.3302-.4905393-.254051-.6822509-.85766068-.4282-1.34819998.254051-.49053931.8576607-.68225098 1.3482-.42820002 1.2594582.65773758 2.6460088 1.03597768 4.065 1.1089.3857.0181.7929-.0039 1.2085-.0244 1.4629-.0713 3.2817-.1636 4.5542 1.27.6986242.8199582 1.0332187 1.8890574.9267 2.961-.0820405 1.2475701-.6542763 2.4120294-1.5918 3.2392-.3862022.3097591-.8017425.5810476-1.2407.81-.2554905.1367978-.5035701.2870075-.7432.45-1.3047735 1.0146091-1.9246883 2.6790697-1.6015 4.3.1751611 1.3351603 1.1175099 2.4432579 2.4072 2.8306l.3647.0952c1.0129027.154144 1.9337831.6753024 2.5874 1.4643 2.0445 2.6885.9156 6.7632.3355 8.3907-.1426095.3976709-.5195315.6629968-.942.6631z"/></g></g></g></g></svg>